<svg xmlns="http://www.w3.org/2000/svg" fill="none" height="17" viewBox="0 0 202 17" width="202"><g fill="#c4c4cc" opacity=".6"><path d="m200.094 4.89887c.109-.97269-.085-1.66382-.636-2.2941-.661-.75472-1.852-1.07804-3.378-1.07804h-4.43c-.15.00007-.296.05405-.411.15226-.114.09821-.19.23422-.214.38358l-1.845 11.73293c-.009.0545-.006.1102.009.1634.016.0531.041.1024.077.1443s.08.0756.13.0987c.05.0232.105.035.16.035h2.494l-.182 1.1626c-.013.0813-.008.1645.014.2439.022.0793.062.1528.116.2154.052.0627.119.1131.193.1475.074.0346.156.0525.238.0525h2.305c.388 0 .718-.2816.78-.6638l.023-.1182.435-2.7636.027-.1489.001-.0064c.012-.0753.05-.144.108-.1934.057-.0495.13-.0766.206-.0763h.345c1.146 0 2.195-.2325 3.028-.8265.343-.2452.645-.5477.899-.9127.423-.59007.696-1.27415.797-1.99353.219-1.13162.118-2.13971-.516-2.86446-.195-.21868-.429-.4002-.689-.53583zm-6.806 4.63816c.09-.04702.19-.07163.291-.07174h1.3c2.553 0 4.551-1.03899 5.135-4.04693l.003-.01453c.196.11262.361.24521.496.39779.494.5658.615 1.39407.407 2.46122-.246 1.26874-.784 2.09516-1.506 2.61016-.725.5177-1.667.7402-2.754.7402h-.345c-.188-.0003-.369.0667-.512.1889-.144.1221-.239.2915-.268.4777l-.028.1489-.435 2.7636-.022.1182v.0036c-.012.0751-.051.1433-.109.1926-.057.0492-.13.0764-.206.0762h-2.306c-.012 0-.026-.0029-.039-.0088-.013-.0058-.025-.0143-.034-.025s-.015-.0231-.019-.0365c-.004-.0135-.005-.0276-.002-.0414l.188-1.1988z"></path><path clip-rule="evenodd" d="m129.578 2.56641h2.945 20.612c-.481 2.38826-.954 4.72332-1.426 7.04918-.099.48991-.197.97941-.297 1.46891-.022.1105-.045.2216-.067.3328-.124.6147-.249 1.2333-.378 1.7894-.329 1.4138-1.546 1.7903-3.318 1.7903h-22.926c.274-1.3184.539-2.6655.806-4.0209.325-1.6531.653-3.31852 1.003-4.95913.044-.20338.082-.41093.122-.61891.073-.39255.147-.78661.251-1.15693.308-1.08618 1.372-1.61287 2.673-1.67472zm13.653 7.07946c-.091.74783.801.65893 1.119.34609.236-.23117.301-.6436.354-.97813.002-.01053.003-.02099.005-.03135-.73-.08969-1.402.04227-1.478.66339zm.042-1.75677c.027-.10434.053-.20868.073-.31986.131-.00381.281-.01591.439-.0287.719-.05848 1.604-.13036 1.641.51902.014.2405-.042.5014-.101.76979-.024.11727-.051.23598-.07.35504-.004.01896-.007.03785-.011.05667-.074.43743-.142.83784-.147 1.32774h-.532c-.008-.1767.017-.3198.044-.4614-.254.4091-.99.707-1.593.4471-.313-.1351-.477-.61893-.33-1.11054.219-.73395 1.055-.90518 2.08-.80757l.002-.00332c.044-.1265.106-.29727.07-.45816-.109-.48838-1.243-.2071-1.607-.11541.014-.05752.028-.11396.042-.1704zm4.765 1.67027c.009.42836.216.68663.631.67773.754-.0163.878-.83661.993-1.59708.032-.21986.066-.43471.112-.62369-.227-.07786-.451-.1502-.76-.11539-.665.07474-.992.90824-.976 1.65843zm1.793-1.94691c.091-.42696.163-.87512.216-1.34106l.616-.00007c-.068.39065-.142.77471-.218 1.15875-.196 1.00665-.392 2.0133-.47 3.13872h-.56c.002-.1207.02-.2256.038-.3305.007-.0386.014-.0772.02-.1166-.008-.0251-.039.0245-.07.0754-.015.0258-.032.052-.045.0689-.053.0669-.135.1633-.215.2163-.415.2737-1.235.1959-1.521-.1299-.167-.1889-.212-.45381-.215-.72097-.017-1.38128.911-2.50037 2.424-2.01897zm-16.787 2.14876c.063.59118.874.59658 1.205.24518.273-.29097.5-1.01025.417-1.5863-.098-.66351-1.053-.61537-1.378-.21636-.028.13757-.051.28257-.074.43283-.018.10805-.035.21883-.056.33152-.012.07531-.03.15089-.047.22642-.044.19138-.087.38225-.067.56671zm.258-1.92989c.277-.22388.913-.45921 1.435-.26209 1.074.4057.457 2.47776-.344 2.91306-.389.211-1.309.3153-1.45-.2308-.084.3548-.14.7402-.193 1.1256-.026.1786-.05.3572-.08.5328h-.616c.277-1.4234.539-2.86132.76-4.34066h.532c-.003.04812-.013.08894-.022.12978-.01.04083-.019.08168-.022.12985zm0 0c-.001.00128-.003.00258-.004.00387-.004.00267-.008.00536-.01.00806.008-.00078.015-.00212.014-.01193zm2.913.77622h1.448c.132-.55702-.185-.73813-.63-.721-.473.01812-.773.38619-.818.721zm-.229-.64895c.268-.28361.644-.41251 1.089-.44704.509-.03932 1.009.0666 1.149.47594.079.23276.03.48368-.016.72714-.017.08081-.032.16078-.042.239-.667-.01718-1.357-.02125-2.023 0-.103.44287-.101.95248.216 1.15376.419.2665 1.126.0524 1.535-.101-.01.0618-.023.1215-.034.1811-.021.0998-.041.1995-.053.3092-.989.2422-2.228.278-2.338-.72104-.078-.70026.187-1.46923.517-1.81706zm-4.349-.34614c-.001-.02035-.001-.04077.016-.04322h.616c-.213.96386-.383 1.97083-.531 2.99956h-.617c.197-.96086.38-1.93446.516-2.95634zm14.938.43266c.177-.2757.63-.73546 1.176-.4615-.024.07848-.038.16664-.054.25481-.01.06035-.019.12067-.032.1779-.966-.27452-1.159.63841-1.291 1.47092-.017.10326-.034.1998-.052.29331-.046.25964-.089.49604-.092.78824h-.632c.208-.97.385-1.96955.532-2.99956h.545c-.023.06984-.035.14994-.048.23001-.013.08627-.027.1725-.052.24587zm-5.811 1.24022c-.016.18529 0 .4292.056.57684.196.50812 1.038.38862 1.479.15862-.014.0651-.025.1325-.037.1999-.014.089-.03.178-.05.2616-.805.2798-1.801.24-2.022-.49034-.19-.62418.078-1.61616.487-2.0478.419-.44086 1.207-.52569 2.037-.38931-.009.06682-.019.1316-.03.19638-.016.09576-.032.19152-.041.29389-.507-.17798-1.142-.23042-1.464.08656-.233.22963-.385.73691-.415 1.15366zm-1.464-1.21133c.199-.35156.629-.72682 1.177-.50477-.008.06849-.021.13113-.034.19378-.018.08033-.034.16066-.038.25331-.579-.20776-.981.17307-1.134.62006-.138.39963-.195.91609-.249 1.39171-.022.1901-.042.3737-.067.5407h-.616c.024-.1306.049-.2611.074-.3915.163-.85344.326-1.70686.442-2.60806h.545c-.014.06651-.027.13592-.038.20534-.018.10301-.035.20599-.062.29943zm-9.055-.01445c.1-.56328.2-1.12689.287-1.70166l.718.00006c-.282 1.37001-.52 2.78437-.746 4.21094h-.703c.064-.4023.137-.79382.211-1.18535.055-.29555.112-.59111.162-.89129-.523-.05002-1.163-.03335-1.726-.0187-.056.00149-.112.00294-.167.00432-.125.57315-.218 1.17729-.312 1.78152-.015.1032-.032.2064-.047.3095h-.704c.192-.95787.359-1.94056.525-2.92331.074-.42993.147-.85987.221-1.28774h.689c-.057.27257-.106.55302-.156.83346-.05.28744-.101.57485-.16.85374.492.03685 1.006.02847 1.517.02014.131-.00214.262-.00426.391-.00563zm2.139-1.70166c.181.16147.022.54939-.101.6345-.078.0541-.341.11641-.459 0-.12-.11952-.05-.44129.028-.54798.049-.06639.121-.10871.245-.12975.134-.02275.23-.00791.287.04323z" fill-rule="evenodd"></path><path d="m114.89 16.8717h-19.881c-.405 0-.7946-.1616-1.0817-.4493-.2858-.2878-.4473-.678-.4473-1.0848v-6.45359h1.1009l.2486-.60342h.5563l.2486.60087h2.1673v-.45705l.1935.46024h1.1253l.1935-.46791v.46664h5.387v-.98696h.101c.073.00256.095.00895.095.1304v.85783h2.786v-.22948c.285.1451.62.23012.977.23012l.06-.00064h-.003 1.172l.251-.60087h.556l.246.60087h2.26v-.57146l.341.57146h1.807v-3.77393h-1.788v.44552l-.251-.44552h-1.839v.44552l-.23-.44552h-2.484c-.375-.01908-.751.05859-1.088.22564l.013-.00576v-.21988h-1.712v.21988c-.208-.16393-.469-.24233-.732-.21925h.004-6.2596l-.4204.97481-.4306-.97481h-1.9725v.44554l-.2166-.44554h-1.6828l-.7792 1.78981v-3.83531c0-.40687.1614-.79708.4485-1.08478s.6755-.44933 1.0805-.44933h19.8807c.406 0 .795.16163 1.082.44933s.447.67791.447 1.08478v6.699h-1.193c-.019-.00127-.042-.00128-.064-.00128-.277 0-.533.0831-.747.22565l.005-.0032v-.22117h-1.765c-.277-.01529-.549.06333-.774.22308l.004-.00254v-.22117h-3.152v.22117c-.259-.14597-.55-.22217-.846-.22117h-.025-2.078v.22117c-.272-.17456-.593-.25225-.915-.22054l.006-.00063h-2.327l-.532.57788-.499-.57788h-3.4741v3.77648h3.4091l.549-.5868.517.5868h2.102v-.884h.293c.281.011.563-.0362.826-.1387l-.014.0051v1.0189h1.733v-.9838h.083c.107 0 .117.0039.117.1113v.8731h5.267l.064.0013c.303 0 .585-.0908.818-.2461l-.005.0032v.2416h1.671l.08.0013c.312 0 .61-.0645.88-.1815l-.015.0057v1.9701c0 .4068-.16.7971-.447 1.0848-.288.2877-.676.4487-1.082.4487zm-7.962-3.8602h-.65v-2.7072h1.49c.269-.0249.539.0204.785.1317l-.01-.0038c.199.1099.332.3196.332.56l-.001.0428v-.0019l.001.0243c0 .3106-.187.5778-.455.6941l-.005.002c.128.046.236.1246.315.2262l.002.0013c.089.1494.128.3247.107.498v-.0039.5357h-.647v-.3388c.031-.1844-.006-.3738-.104-.5331l.001.0032c-.066-.0512-.143-.0882-.225-.1088-.082-.0205-.167-.0242-.251-.0107l.004-.0007h-.689zm0-2.1478v.6079h.783c.111.0102.222-.0097.323-.0576l-.004.0019c.042-.0265.075-.063.098-.1059.023-.043.036-.0912.036-.1401v-.0147c.002-.0489-.008-.097-.032-.14-.023-.043-.058-.0785-.1-.1023l-.002-.0007c-.097-.0433-.203-.0609-.308-.0511h.002zm-5.75 2.1471h-2.5548v-2.7065h2.5938l.794.8873.82-.8873h2.059c.732 0 1.087.2922 1.087.8918 0 .6104-.368.907-1.121.907h-.806v.9071h-1.254l-.793-.8943zm2.23-2.4162-.99 1.0674.99 1.1021zm-4.1414 1.3135v.5383h1.5854l.733-.7939-.705-.7888h-1.6134v.4922h1.4154v.5516zm4.7834-1.0438v.6891h.833c.255 0 .401-.1304.401-.358 0-.2173-.136-.3317-.394-.3317zm11.494 2.1478h-1.245v-.5817h1.239c.094.0128.188-.0115.263-.0678l-.001.0007c.024-.0223.043-.0493.056-.0793.013-.0301.019-.0625.019-.0952v-.0019-.0084c0-.0323-.006-.0643-.02-.0937-.013-.0293-.033-.0554-.058-.0763-.065-.0478-.147-.0692-.228-.0601l-.118-.0038c-.582-.0154-1.242-.0333-1.242-.8342 0-.3899.244-.8061.926-.8061h1.284v.5766h-1.175c-.091-.0102-.182.0081-.263.0524l.002-.0012c-.03.0207-.056.0496-.073.0836-.016.034-.023.0717-.02.1094v.0064c0 .0431.014.085.038.1199.026.0349.062.061.103.0744l.001.0007c.081.0249.165.0353.249.0306l.348.009c.264-.0264.527.0523.733.2192l-.001-.0012c.019.0153.035.0319.05.0505l.008 1.031c-.107.1256-.244.2228-.396.2831-.154.0603-.319.0819-.483.0628zm-2.516 0h-1.256v-.5817h1.249c.094.0123.189-.012.264-.0678l-.001.0007c.024-.0224.044-.0494.056-.0794.013-.0301.02-.0624.02-.0951v-.0019-.0045c0-.0329-.008-.0654-.021-.0954-.014-.03-.033-.0567-.058-.0785-.068-.0478-.15-.0692-.232-.0601h.002l-.118-.0038c-.581-.0154-1.24-.0333-1.24-.8342 0-.3899.243-.8061.922-.8061h1.293v.5766h-1.183c-.091-.0101-.182.0083-.261.0524l.002-.0012c-.033.0231-.059.0548-.077.0918-.016.0371-.023.078-.019.1186.005.0405.019.0791.044.1117.024.0326.057.058.095.0735l.001.0007c.082.0252.168.0355.254.0307h-.003l.347.0089c.266-.0256.53.0532.739.2199l-.003-.0019c.071.0774.123.1686.156.2677.034.0991.047.2041.036.3082v-.0032c.003.5644-.338.8521-1.011.8521zm-1.643 0h-2.154v-2.7084h2.152v.5593h-1.508v.4922h1.472v.5517h-1.472v.5382l1.51.0025v.5626zm1.256-4.65736h-1.314l-.251-.60342h-1.34l-.243.60342h-.755c-.338.01792-.672-.08918-.937-.30107l.003.00191c-.126-.13965-.222-.30415-.281-.48299s-.081-.36811-.063-.55574l-.001.00512c-.017-.19107.006-.3835.067-.56559.06-.18208.156-.35001.283-.49359l-.002.00128c.134-.11737.29-.20587.459-.25997.17-.0541.349-.07267.526-.05453l-.005-.00064h.624v.57722h-.612c-.089-.01157-.18-.00319-.266.02455-.086.02773-.165.07413-.231.13588-.136.17503-.201.39416-.184.61558v-.0032c-.021.22748.043.45451.178.63794l-.001-.00256c.126.10385.288.15386.451.13935h-.003.29l.912-2.12859h.968l1.092 2.55686v-2.55686h.982l1.133 1.88441v-1.88441h.662v2.70517h-.92l-1.223-2.03144v2.03144zm-2.23-2.24876-.444 1.07899h.89zm-6.245 2.24748h-.644v-2.70645h1.484c.27-.02818.543.01799.791.1336l-.011-.00383c.099.05502.182.13566.24.23356.058.09791.088.20951.088.32319l-.001.04475v-.00192.01981c0 .14764-.042.29214-.123.41619-.079.12405-.193.22235-.327.28313l-.005.00191c.128.04858.236.12657.318.22628l.001.00128c.091.14994.128.32639.107.5005v-.00383.5312h-.65l-.003-.34135v-.05114c.023-.1669-.014-.33662-.103-.47877l.001.00319c-.068-.04973-.144-.08556-.226-.10543-.081-.01985-.165-.02334-.248-.01027l.003-.00063h-.69v.9844zm0-2.14329v.60085h.783c.111.01204.222-.00793.322-.05752l-.004.00127c.041-.02489.076-.05989.099-.10165s.036-.08885.036-.13677l-.001-.0179c.003-.04857-.008-.09639-.031-.13877-.025-.04236-.06-.07678-.104-.09902l-.001-.00063c-.096-.04173-.203-.05928-.308-.05115h.003zm-6.827 2.14329h-1.3111l-.2474-.60342h-1.3431l-.25.60342h-.701l1.156-2.70645h.9574l1.0958 2.56135v-2.56135h1.0523l.8446 1.83519.7754-1.83519h1.0731v2.70517h-.663l-.0013-2.11708-.9343 2.11773h-.5665l-.9369-2.12093zm-2.2326-2.24748-.4396 1.07899h.8805zm12.0346 2.24685h-.657v-2.70582h.658v2.70517zm-4.069 0h-2.15v-2.70582h2.154v.56252h-1.509v.48772h1.473v.55548h-1.474v.54077h1.508v.55868z"></path><path d="m161.425 1.5293h1.39v15.3403h-1.39z"></path><path d="m168.379 1.5293h1.391v13.9458h-1.391z"></path><path d="m164.206 1.5293h2.781v13.9458h-2.781z"></path><path d="m171.155 1.5293h2.781v13.9458h-2.781z"></path><path d="m175.325 1.5293h2.781v13.9458h-2.781z"></path><path d="m179.496 1.5293h1.39v15.3403h-1.39z"></path><path d="m78.7143 15.5681c-1.2816.0002-2.5351-.3809-3.6014-1.0951-1.065-.7141-1.8955-1.7293-2.3864-2.9171s-.619-2.49486-.3691-3.75594.8664-2.41952 1.7725-3.32881c.9061-.9093 2.0609-1.52862 3.3182-1.77964s2.5594-.12249 3.7437.36937c1.1842.49187 2.1967 1.32495 2.9093 2.3939.7113 1.06896 1.092 2.32577 1.092 3.61152-.0013 1.7234-.6845 3.3767-1.8995 4.5954-1.215 1.2188-2.8619 1.9043-4.5793 1.9064z" opacity=".5"></path><path d="m72.4074 15.5681c-1.2817 0-2.5351-.3812-3.6002-1.0956-1.0663-.7143-1.8968-1.7296-2.3864-2.9175-.4908-1.1878-.619-2.49494-.3691-3.75598s.8677-2.4194 1.7738-3.32855c.9061-.90917 2.0609-1.5283 3.3182-1.77914 1.256-.25085 2.5594-.12211 3.7437.36993 1.1842.49203 2.1954 1.32527 2.908 2.39432.7126 1.06906 1.092 2.32594 1.092 3.61169-.0013 1.72353-.6844 3.37603-1.8994 4.59483s-2.8619 1.9042-4.5806 1.906z"></path><path d="m11.3368 12.1044-2.40052-2.40817c-.08767-.08801-.19135-.10402-.24723-.10402s-.15957.01601-.24723.10402l-2.4086 2.41617c-.27107.272-.69375.7121-2.10549.7121l2.95894 2.9602c.44858.4494 1.05672.702 1.69075.702s1.24217-.2526 1.69078-.702l2.9667-2.9682c-.7257 0-1.3319-.144-1.8981-.7121zm-5.30358-7.24054 2.4086 2.41618c.06382.064.15944.10401.24723.10401.08766 0 .1834-.04001.24723-.10401l2.38462-2.39219c.5662-.59205 1.2122-.72805 1.938-.72805l-2.9668-2.96823c-.44867-.449479-1.05669-.701946-1.69085-.701946-.63403 0-1.24204.252467-1.69074.701946l-2.95881 2.96023c1.40366 0 1.83429.46403 2.08152.71206z"></path><path d="m15.852 6.7686-1.7945-1.80813h-1.0048c-.4307 0-.8614.17601-1.1565.48803l-2.39253 2.40018c-.22339.22402-.51843.33604-.81346.33604-.30388-.0043-.59481-.12444-.81359-.33604l-2.40847-2.42417c-.30311-.30404-.71784-.48005-1.15642-.48005h-1.17232l-1.82635 1.84014c-.448067.45004-.699779 1.06008-.699779 1.69614 0 .63604.251712 1.24609.699779 1.69616l1.82635 1.8401h1.18026c.43063 0 .84538-.176 1.15643-.48l2.4086-2.41622c.22326-.22401.5183-.33602.81346-.33602.29503 0 .59019.11201.81345.33602l2.40049 2.40822c.3031.304.7179.48 1.1565.48h1.0049l1.7944-1.8081c.45-.45817.7008-1.07634.6979-1.71947-.0031-.64312-.2597-1.25892-.7138-1.71283z"></path><path d="m55.2098 14.0863-.3074-1.5416h-3.4341l-.5464 1.5306-2.7525.0055c1.3104-3.1611 2.6236-6.32115 3.9395-9.47998.2241-.5358.6215-.8085 1.2076-.80576.4481.00411 1.1789.00411 2.1938.00138l2.1282 10.28576zm-2.9683-3.6533h2.2128l-.8264-3.86437zm-17.7431-6.63932 2.7676.00276-4.2783 10.29116-2.8017-.0027c-.7045-2.7183-1.4003-5.43888-2.0873-8.1617-.1366-.54266-.407-.92224-.9275-1.10175-.7687-.25842-1.5411-.50602-2.3167-.74272v-.28093h4.4217c.765 0 1.2116.37136 1.3551 1.13327.1448.76329.5081 2.70643 1.0928 5.82943zm6.5704.00276-2.1882 10.28846-2.6337-.0027 2.1856-10.28852zm5.3412-.19048c.7882 0 1.7812.24666 2.3522.47277l-.4617 2.13361c-.5163-.20829-1.3659-.48921-2.0805-.47962-1.0381.01781-1.6801.45495-1.6801.87427 0 .68244 1.1147 1.02639 2.2621 1.77185 1.31.84961 1.4821 1.61289 1.4657 2.44196-.0178 1.7211-1.4657 3.4189-4.5201 3.4189-1.3933-.0204-1.8959-.1383-3.0325-.5425l.4809-2.2269c1.1569.4865 1.6473.6414 2.6363.6414.9056 0 1.683-.3673 1.6898-1.0073.0055-.4549-.2733-.681-1.2895-1.24285-1.0164-.56321-2.4424-1.34293-2.4233-2.90786.0232-2.00343 1.9151-3.34773 4.6021-3.34773z"></path></g></svg>